<svg width="28" height="28" viewBox="0 0 28 28" fill="none" xmlns="http://www.w3.org/2000/svg">
<g clip-path="url(#clip0_102_1511)">
<path d="M13.3211 0.0161927C5.9263 0.368289 0.0907907 6.5267 0.113224 13.9298C0.120054 16.1847 0.664404 18.3129 1.62467 20.1934L0.150322 27.35C0.0705676 27.7371 0.419718 28.0761 0.804292 27.985L7.81696 26.3236C9.61863 27.2211 11.6423 27.7394 13.784 27.7721C21.3422 27.8875 27.6443 21.8862 27.8799 14.3308C28.1324 6.23199 21.4482 -0.370859 13.3211 0.0161927ZM21.6887 21.5756C19.635 23.6293 16.9044 24.7603 14 24.7603C12.2994 24.7603 10.6712 24.3788 9.1606 23.6263L8.18399 23.1398L3.8845 24.1585L4.78952 19.7651L4.30838 18.823C3.52417 17.2871 3.12654 15.6264 3.12654 13.8868C3.12654 10.9824 4.25756 8.25189 6.31128 6.19811C8.34665 4.16274 11.1218 3.0133 14.0002 3.0133C16.9046 3.01337 19.635 4.14439 21.6888 6.19804C23.7425 8.25176 24.8735 10.9823 24.8736 13.8866C24.8735 16.7652 23.7241 19.5403 21.6887 21.5756Z" fill="#7AD06D"/>
<path d="M20.7396 16.8982L18.0497 16.1259C17.696 16.0243 17.3152 16.1247 17.0575 16.3872L16.3998 17.0574C16.1224 17.34 15.7015 17.4308 15.3344 17.2823C14.062 16.7673 11.3853 14.3874 10.7017 13.197C10.5045 12.8536 10.5371 12.4243 10.7793 12.111L11.3535 11.368C11.5785 11.0769 11.626 10.686 11.4772 10.3495L10.3455 7.78991C10.0745 7.17686 9.29105 6.9984 8.77924 7.43126C8.02851 8.06621 7.13775 9.03109 7.02947 10.1C6.83856 11.9847 7.64681 14.3604 10.7033 17.2131C14.2343 20.5087 17.0619 20.9441 18.9029 20.4981C19.9472 20.2452 20.7817 19.2313 21.3083 18.401C21.6674 17.835 21.3839 17.0832 20.7396 16.8982Z" fill="#7AD06D"/>
</g>
<defs>
<clipPath id="clip0_102_1511">
<rect width="28" height="28" fill="white"/>
</clipPath>
</defs>
</svg>
